<?xml version="1.0" encoding="iso-8859-1"?>
<!-- Uploaded to: SVG Repo, www.svgrepo.com, Generator: SVG Repo Mixer Tools -->
<svg version="1.1" id="Layer_1" xmlns="http://www.w3.org/2000/svg" xmlns:xlink="http://www.w3.org/1999/xlink" 
	 viewBox="0 0 512 512" xml:space="preserve">
<polygon style="fill:#B9B9B9;" points="478.242,489.495 512,489.495 512,90.022 455.736,56.264 "/>
<polygon style="fill:#DCDCDC;" points="0,90.022 0,489.495 478.242,489.495 478.242,56.264 "/>
<polygon style="fill:#FE5F1A;" points="478.242,22.505 455.736,56.264 478.242,90.022 512,90.022 512,22.505 "/>
<polygon style="fill:#FE834D;" points="427.604,22.505 393.846,56.264 427.604,90.022 478.242,90.022 478.242,22.505 "/>
<polygon style="fill:#969696;" points="393.846,22.505 360.088,56.264 393.846,90.022 427.604,90.022 427.604,22.505 "/>
<rect y="22.505" style="fill:#B9B9B9;" width="393.846" height="67.516"/>
<polygon style="fill:#D5F6F5;" points="444.484,123.78 421.978,346.67 444.484,455.736 478.242,455.736 478.242,123.78 "/>
<rect x="33.758" y="123.78" style="fill:#FFFFFF;" width="410.725" height="331.956"/>
<circle style="fill:#272727;" cx="469.802" cy="56.264" r="8.44"/>
<path style="fill:#FE5F1A;" d="M256,178.919v221.679c61.215,0,110.84-49.625,110.84-110.84S317.215,178.919,256,178.919z"/>
<path style="fill:#FE834D;" d="M333.081,289.758c0-61.215-34.511-110.84-77.081-110.84c-61.215,0-110.84,49.625-110.84,110.84
	s49.625,110.84,110.84,110.84C298.57,400.598,333.081,350.973,333.081,289.758z"/>
<path style="fill:#FFFFFF;" d="M267.937,289.758l40.58-40.581c3.296-3.297,3.296-8.64,0-11.936c-3.297-3.295-8.64-3.295-11.936,0
	L256,277.822l-40.58-40.581c-3.297-3.295-8.64-3.295-11.936,0c-3.296,3.297-3.296,8.64,0,11.936l40.58,40.581l-40.58,40.581
	c-3.296,3.297-3.296,8.64,0,11.936c3.297,3.295,8.64,3.295,11.936,0L256,301.694l40.58,40.581c3.297,3.295,8.64,3.295,11.936,0
	c3.296-3.297,3.296-8.64,0-11.936L267.937,289.758z"/>
</svg>