<!DOCTYPE svg PUBLIC "-//W3C//DTD SVG 1.1//EN" "http://www.w3.org/Graphics/SVG/1.1/DTD/svg11.dtd">
<!-- Uploaded to: SVG Repo, www.svgrepo.com, Transformed by: SVG Repo Mixer Tools -->
<svg fill="#ffffff" width="800px" height="800px" viewBox="-5.5 0 32 32" version="1.1" xmlns="http://www.w3.org/2000/svg" stroke="#ffffff">
<g id="SVGRepo_bgCarrier" stroke-width="0"/>
<g id="SVGRepo_tracerCarrier" stroke-linecap="round" stroke-linejoin="round"/>
<g id="SVGRepo_iconCarrier"> <title>tumblr</title> <path d="M2.625 5.594h15.563c1.469 0 2.625 1.156 2.625 2.625v15.563c0 0.781-0.313 1.375-0.781 1.844-0.438 0.438-1.125 0.781-1.844 0.781h-15.563c-1.469 0-2.625-1.156-2.625-2.625v-15.563c0-0.719 0.344-1.406 0.781-1.844 0.469-0.469 1.063-0.781 1.844-0.781zM7.031 14.188v5.813c0 0.781 0.063 1.344 0.219 1.719s0.469 0.781 0.875 1.125 0.906 0.656 1.5 0.844c0.563 0.188 1.25 0.281 2 0.281 0.688 0 1.281-0.063 1.844-0.219 0.563-0.125 1.219-0.375 1.938-0.688v-2.625c-0.844 0.531-1.656 0.844-2.5 0.844-0.469 0-0.906-0.156-1.25-0.375-0.281-0.156-0.5-0.344-0.594-0.625-0.094-0.25-0.156-0.875-0.156-1.844v-4.25h3.938v-2.563h-3.938v-4.219h-2.344c-0.094 0.844-0.281 1.563-0.563 2.094-0.281 0.563-0.656 1.031-1.125 1.438-0.438 0.375-0.969 0.688-1.656 0.906v2.344h1.813z"/> </g>
</svg>